<?xml version="1.0" encoding="UTF-8"?>
<!-- Created with Inkscape (http://www.inkscape.org/) -->
<svg width="360mm" height="369.09mm" version="1.1" viewBox="0 0 360 369.09" xmlns="http://www.w3.org/2000/svg" xmlns:cc="http://creativecommons.org/ns#" xmlns:dc="http://purl.org/dc/elements/1.1/" xmlns:rdf="http://www.w3.org/1999/02/22-rdf-syntax-ns#"><metadata><rdf:RDF><cc:Work rdf:about=""><dc:format>image/svg+xml</dc:format><dc:type rdf:resource="http://purl.org/dc/dcmitype/StillImage"/><dc:title/></cc:Work></rdf:RDF></metadata><g transform="translate(75 36.046)"><g transform="translate(-65.5 -28.331)"><path d="m170.5-0.026086c-7.0846 9.35e-6 -19.026 24.031-19.062 58.205l0.0362 54.388-1.9176 10.818s-0.10598 1.4555-0.99653 1.9124-25.868 13.39-25.868 13.39c0.89235-6.9871 2.094-27.847-0.25947-27.847h-15.911c-3.162 1e-5 -2.337 31.287-0.34733 31.287h1.0188l1.163 3.968-94.45 48.717c-4.8538 2.6647-11.085 6.7435-12.179 12.611l-1.7264 14.181v2.7208l1.8819-8.6075c0.26207-1.101 1.0968-1.7912 2.1833-2.0856l48.418-14.553 1.5222 5.4184 1.2943-6.2934 32.906-10.202 1.2591 4.6033 1.4023-5.4184-0.02378-0.0238 17.489-5.4184h13.63v0.0238l1.1754 4.6751 1.1268-4.6989 27.248-0.014 0.0594 84.392c0.23612 14.268 3.6729 28.282 6.066 42.28 0 0-0.48489 3.4026-4.915 6.2216 0 0-36.324 23.321-38.756 24.91-2.4318 1.5884-3.5142 3.8978-3.5142 8.6897l0.0961 5.1067 52.194-11.616c1.3933 6.3589 5.2092 17.812 5.3703 18.305 0.16114 0.49226 0.88696 1.043 0.88696 1.043s0.44043 0.31323 0.75567 0.31323h1.486c0.31524 0 0.75567-0.31323 0.75567-0.31323s0.72582-0.55079 0.88695-1.043c0.16114-0.49225 3.977-11.946 5.3703-18.305l52.194 11.616 0.0956-5.1067c0-4.7918-1.0819-7.1013-3.5137-8.6897s-38.756-24.91-38.756-24.91c-4.4301-2.8189-4.915-6.2216-4.915-6.2216 2.3931-13.998 5.8299-28.012 6.066-42.28l0.06-84.392 27.248 0.014 1.1273 4.6989 1.1748-4.6751v-0.0238h13.63l17.49 5.4184-0.0238 0.0238 1.4023 5.4184 1.2586-4.6033 32.906 10.202 1.2948 6.2934 1.5222-5.4184 48.418 14.553c1.0865 0.29433 1.9212 0.98458 2.1833 2.0856l1.8824 8.6075v-2.7208l-1.7263-14.181c-1.0936-5.8671-7.3253-9.946-12.179-12.611l-94.45-48.717 1.163-3.968h1.0188c1.9896 0 2.8147-31.287-0.34734-31.287h-15.911c-2.3535 0-1.1518 20.86-0.25947 27.847 0 0-24.977-12.933-25.867-13.39-0.89055-0.45697-0.99705-1.9124-0.99705-1.9124l-1.9176-10.818 0.0362-54.388c-0.03593-34.174-11.977-58.205-19.062-58.205zm-2.373 45.661c0.8389 4.8e-5 1.0544 0.39604 1.0544 1.0673v3.692c0 0.68329-0.21552 1.0792-1.0544 1.0792-0.8389-6e-6 -1.0441-0.39594-1.0441-1.0792v-3.692c0-0.6713 0.20519-1.0673 1.0441-1.0673zm4.7454 0c0.8389 4.8e-5 1.0446 0.39604 1.0446 1.0673v3.692c0 0.68329-0.2057 1.0792-1.0446 1.0792-0.8389-6e-6 -1.0539-0.39594-1.0539-1.0792v-3.692c0-0.6713 0.215-1.0673 1.0539-1.0673zm-46.369 122.62c0.87915-2e-3 1.44 0.52759 1.44 1.4746v5.0349c0 0.82604-0.55805 1.4757-1.44 1.4757-0.88197 0-1.4379-0.64964-1.4379-1.4757v-5.0349c-2e-5 -0.93514 0.55878-1.4724 1.4379-1.4746zm87.992 0c0.87916 2e-3 1.4385 0.5395 1.4385 1.4746v5.0349c0 0.82604-0.55649 1.4757-1.4385 1.4757s-1.44-0.64964-1.44-1.4757v-5.0349c5e-5 -0.94705 0.56085-1.4766 1.44-1.4746zm-81.29 0.0476c0.87915-2e-3 1.4394 0.52759 1.4395 1.4746v5.0349c0 0.82603-0.55752 1.4757-1.4395 1.4757s-1.4385-0.64964-1.4385-1.4757v-5.0349c-2e-5 -0.93514 0.5593-1.4724 1.4385-1.4746zm74.589 0c0.87915 2e-3 1.4385 0.5395 1.4384 1.4746v5.0349c0 0.82603-0.55649 1.4757-1.4384 1.4757-0.88197 0-1.44-0.64964-1.44-1.4757v-5.0349c5e-5 -0.94705 0.56085-1.4766 1.44-1.4746z" fill="#3296ff" fill-rule="evenodd"/><circle cx="170.5" cy="172.29" r="179.31" fill="none" stroke="#3296ff" stroke-linecap="square" stroke-linejoin="round" stroke-miterlimit="3" stroke-width="1.371" style="paint-order:normal"/></g></g></svg>
