<?xml version="1.0" encoding="UTF-8"?>
<svg width="660mm" height="735.62mm" version="1.1" viewBox="0 0 660 735.62" xmlns="http://www.w3.org/2000/svg"><g transform="translate(227.07 219.31)"><g transform="translate(-220.16 -219.35)"><path d="m323.98 0.041596c-12.621 1.1404-32.35 58.556-32.35 95.304v172.91l-46.402 31.844c1.7124-7.7226 3.623-25.137-0.66208-43.984h-33.315c-3.6679 12.285-5.2993 33.094 0.0391 51.47l3.3026 0.0898 3.0428 11.261c-67.538 46.949-135.82 92.856-204.08 138.75-2.0153 1.3847-2.119 1.8573-2.119 1.8573l-11.437 22.93v8.1344l26.342-17.935 71.254-28.565 34-11.466 0.69527 3.201 1.5605-3.992 51.247-17.319 1.0976 3.6346 1.041-4.3845 29.414-9.9624 21.011-3.2655 0.82027 6e-3 1.3632 4.7322 1.7772-4.7341 50.009-0.0273s-0.0109 126.27 0 148.94c0.0156 32.451 7.5281 73.581 8.5445 79.039s3.3484 11.282-3.1483 16.589c-6.4967 5.3071-71.763 58.406-77.1 62.77-5.3362 4.364-4.9704 10.253-4.7556 11.913s1.9276 15.884 1.9276 15.884l98.173-36.949 7.8414 28.559 1.7675 4e-3 7.8414-28.559 98.171 36.949s1.7128-14.223 1.9276-15.884 0.58251-7.5514-4.7536-11.915c-5.3362-4.3639-70.605-57.461-77.102-62.768-6.4967-5.3071-4.1647-11.131-3.1483-16.589s8.5308-46.587 8.5464-79.039c0.0109-22.668 0-148.94 0-148.94l50.007 0.0273 1.7773 4.7341 1.3632-4.7322 0.82222-8e-3 21.011 3.2674 29.413 9.9624 1.041 4.3826 1.0976-3.6326 51.249 17.319 1.5605 3.992 0.69331-3.201 34.002 11.464 71.252 28.567 26.344 17.935-2e-3 -8.1344-11.435-22.93s-0.1057-0.47265-2.121-1.8573c-68.258-45.89-136.54-91.8-204.08-138.75l3.0409-11.259 3.3045-0.0918c5.3383-18.376 3.705-39.185 0.0371-51.47h-33.315c-4.2851 18.847-2.3726 36.264-0.66013 43.986l-46.402-31.846v-172.91c0-36.748-19.762-94.167-32.383-95.308zm-4.3806 54.566h2.0546c0.8995-7e-6 1.2851 0.38391 1.2851 1.2812v7.5582c-4e-5 0.89669-0.38558 1.2812-1.2851 1.2812h-2.0546c-0.89949-9e-6 -1.2246-0.38449-1.2206-1.2812v-7.5582c-4e-3 -0.89728 0.32117-1.2812 1.2206-1.2812zm6.6422 0h2.0546c0.8995-7e-6 1.2851 0.38391 1.2851 1.2812v7.5582c-4e-5 0.89669-0.38558 1.2812-1.2851 1.2812h-2.0546c-0.89948-9e-6 -1.2246-0.38449-1.2206-1.2812v-7.5582c-4e-3 -0.89728 0.32117-1.2812 1.2206-1.2812zm43.543 294.97h2.5057c0.89954-6e-5 1.2851 0.38451 1.2851 1.2812v8.8394c2e-5 0.89668-0.38553 1.2812-1.2851 1.2812h-2.5057c-0.89957-5e-5 -1.2852-0.38456-1.2851-1.2812v-8.8394c-7e-5 -0.89676 0.38559-1.2813 1.2851-1.2812zm13.968 0h2.5057c0.89954-6e-5 1.2851 0.38451 1.2851 1.2812v8.8394c2e-5 0.89668-0.38553 1.2812-1.2851 1.2812h-2.5057c-0.89958-5e-5 -1.2852-0.38456-1.2851-1.2812v-8.8394c-7e-5 -0.89676 0.38559-1.2813 1.2851-1.2812zm-122 0.0488h2.5057c0.89954-6e-5 1.2851 0.38451 1.2851 1.2812v8.8394c2e-5 0.89667-0.38553 1.2812-1.2851 1.2812h-2.5057c-0.89957-5e-5 -1.2852-0.38456-1.2851-1.2812v-8.8394c-8e-5 -0.89675 0.38559-1.2813 1.2851-1.2812zm13.97 0h2.5057c0.89955-6e-5 1.2851 0.38451 1.2851 1.2812v8.8394c2e-5 0.89667-0.38553 1.2812-1.2851 1.2812h-2.5057c-0.89957-5e-5 -1.2852-0.38456-1.2851-1.2812v-8.8394c-7e-5 -0.89675 0.38558-1.2813 1.2851-1.2812zm94.048 13.818h2.5057c0.89954-6e-5 1.2851 0.38451 1.2851 1.2812v8.8394c2e-5 0.89668-0.38552 1.2812-1.2851 1.2812h-2.5057c-0.89957-5e-5 -1.2852-0.38456-1.2851-1.2812v-8.8394c-7e-5 -0.89675 0.38559-1.2813 1.2851-1.2812zm13.97 0h2.5057c0.89954-6e-5 1.2851 0.38451 1.2851 1.2812v8.8394c2e-5 0.89668-0.38553 1.2812-1.2851 1.2812h-2.5057c-0.89957-5e-5 -1.2852-0.38456-1.2851-1.2812v-8.8394c-7e-5 -0.89675 0.38559-1.2813 1.2851-1.2812zm-122 0.0488h2.5057c0.89955-6e-5 1.2851 0.38451 1.2851 1.2812v8.8394c2e-5 0.89667-0.38553 1.2812-1.2851 1.2812h-2.5057c-0.89957-5e-5 -1.2852-0.38456-1.2851-1.2812v-8.8394c-7e-5 -0.89675 0.38559-1.2813 1.2851-1.2812zm13.97 0h2.5057c0.89954-6e-5 1.2851 0.38451 1.2851 1.2812v8.8394c2e-5 0.89667-0.38553 1.2812-1.2851 1.2812h-2.5057c-0.89957-5e-5 -1.2852-0.38456-1.2851-1.2812v-8.8394c-7e-5 -0.89675 0.38558-1.2813 1.2851-1.2812zm97.866 6.2614h8.8667zm-108.03 0.0488h8.8667zm104.23 7.5406h2.5057c0.89954-6e-5 1.2851 0.38451 1.2851 1.2812v8.8394c2e-5 0.89667-0.38552 1.2792-1.2851 1.2792h-2.5057c-0.89957-5e-5 -1.2852-0.38261-1.2851-1.2792v-8.8394c-7e-5 -0.89675 0.38559-1.2813 1.2851-1.2812zm13.97 0h2.5057c0.89954-6e-5 1.2831 0.38451 1.2831 1.2812v8.8394c2e-5 0.89667-0.38357 1.2792-1.2831 1.2792h-2.5057c-0.89957-5e-5 -1.2852-0.38261-1.2851-1.2792v-8.8394c-7e-5 -0.89675 0.38559-1.2813 1.2851-1.2812zm-122 0.0488h2.5057c0.89955-6e-5 1.2851 0.38451 1.2851 1.2812v8.8394c1e-5 0.89667-0.38553 1.2812-1.2851 1.2812h-2.5057c-0.89957-5e-5 -1.2852-0.38456-1.2851-1.2812v-8.8394c-7e-5 -0.89675 0.38559-1.2813 1.2851-1.2812zm13.97 0h2.5057c0.89954-6e-5 1.2851 0.38451 1.2851 1.2812v8.8394c2e-5 0.89667-0.38553 1.2812-1.2851 1.2812h-2.5057c-0.89957-5e-5 -1.2852-0.38456-1.2851-1.2812v-8.8394c-7e-5 -0.89675 0.38558-1.2813 1.2851-1.2812z" fill="#3296ff"/><circle cx="323.1" cy="368.73" r="328.11" fill="none" stroke="#3296ff" stroke-width="3.7896" style="paint-order:normal"/></g></g></svg>
