<?xml version="1.0" encoding="UTF-8" standalone="no"?>
<svg
   xmlns:dc="http://purl.org/dc/elements/1.1/"
   xmlns:cc="http://creativecommons.org/ns#"
   xmlns:rdf="http://www.w3.org/1999/02/22-rdf-syntax-ns#"
   xmlns:svg="http://www.w3.org/2000/svg"
   xmlns="http://www.w3.org/2000/svg"
   xmlns:sodipodi="http://sodipodi.sourceforge.net/DTD/sodipodi-0.dtd"
   xmlns:inkscape="http://www.inkscape.org/namespaces/inkscape"
   width="64"
   height="64"
   version="1.1"
   viewBox="0 0 64 64"
   id="svg16"
   sodipodi:docname="FGA_THR.svg"
   inkscape:version="0.92.1 r15371">
  <metadata
     id="metadata22">
    <rdf:RDF>
      <cc:Work
         rdf:about="">
        <dc:format>image/svg+xml</dc:format>
        <dc:type
           rdf:resource="http://purl.org/dc/dcmitype/StillImage" />
        <dc:title></dc:title>
      </cc:Work>
    </rdf:RDF>
  </metadata>
  <defs
     id="defs20" />
  <sodipodi:namedview
     pagecolor="#ffffff"
     bordercolor="#666666"
     borderopacity="1"
     objecttolerance="10"
     gridtolerance="10"
     guidetolerance="10"
     inkscape:pageopacity="0"
     inkscape:pageshadow="2"
     inkscape:window-width="1920"
     inkscape:window-height="1147"
     id="namedview18"
     showgrid="false"
     inkscape:zoom="4"
     inkscape:cx="-31.957369"
     inkscape:cy="57.205794"
     inkscape:window-x="-8"
     inkscape:window-y="-8"
     inkscape:window-maximized="1"
     inkscape:current-layer="svg16"
     units="px" />
  <g
     transform="matrix(0.48381287,0,0,0.48380165,-18.79736,-39.8415)"
     id="g14">
    <g
       transform="matrix(1.0265,0,0,1.0265,-2.7864,-3.9408)"
       id="g12"
       style="fill-rule:evenodd">
      <path
         transform="matrix(0.26458,0,0,0.26458,38.854,82.354)"
         d="m 294.7,489.09 -44.15,-72.041 -44.803,72.281 c 14.546,2.7042 29.306,4.1868 44.131,4.209 15.063,-0.066 30.057,-1.6154 44.822,-4.4492 z"
         style="paint-order:normal"
         id="path2"
         inkscape:connector-curvature="0" />
      <path
         transform="matrix(0.26458,0,0,0.26458,38.854,82.354)"
         d="M 318.85,483.12 250.557,371.68 181.289,483.43 c 1.3922,0.41046 2.7334,0.92574 4.1367,1.3125 6.7072,1.8521 13.5,3.3069 20.328,4.5762 l 44.803,-72.281 44.15,72.041 c 6.3642,-1.2214 12.699,-2.6112 18.957,-4.3398 1.7592,-0.47721 3.4438,-1.1087 5.1855,-1.623 z"
         style="fill:#fffc00;paint-order:normal"
         id="path4"
         inkscape:connector-curvature="0" />
      <path
         transform="matrix(0.26458,0,0,0.26458,38.854,82.354)"
         d="m 7.793,274.15 c 9.8503,98.716 78.612,181.32 173.49,209.29 l 69.268,-111.75 68.293,111.44 c 94.698,-27.966 163.41,-110.38 173.36,-208.98 z"
         style="paint-order:normal"
         id="path6"
         inkscape:connector-curvature="0" />
      <path
         d="m 105,84.064 a 64.436,64.436 0 0 0 -6.9536,0.45217 v 63.984 H 91.068 v -62.829 a 64.436,64.436 0 0 0 -3.4644,0.79478 v 62.034 h -6.9784 v -59.598 a 64.436,64.436 0 0 0 -3.4644,1.5503 v 58.048 h -6.9784 v -54.219 a 64.436,64.436 0 0 0 -3.4644,2.4774 v 51.742 h -6.9784 v -45.829 a 64.436,64.436 0 0 0 -3.4644,3.7192 v 42.11 h -6.9784 v -32.27 a 64.436,64.436 0 0 0 -3.4644,6.8011 v 25.469 H 40.564 a 64.436,64.436 0 0 0 0.08992,2.5476 h 128.65 a 64.436,64.436 0 0 0 0.12764,-2.5476 h -5.2684 v -25.336 a 64.436,64.436 0 0 0 -3.4644,-6.8952 v 32.232 h -6.9784 v -42.046 a 64.436,64.436 0 0 0 -3.4644,-3.7445 v 45.79 h -6.9784 v -51.738 a 64.436,64.436 0 0 0 -3.4644,-2.4035 v 54.141 h -6.9784 v -58.023 a 64.436,64.436 0 0 0 -3.4644,-1.5885 v 59.611 h -6.9784 v -61.978 a 64.436,64.436 0 0 0 -3.4644,-0.8847 v 62.863 h -6.9784 v -64.035 a 64.436,64.436 0 0 0 -6.9536,-0.40049 z"
         style="paint-order:normal"
         id="path8"
         inkscape:connector-curvature="0" />
      <path
         d="m 86.789,198.81 18.357,-29.616 18.149,29.615 h 7.3544 l -25.503,-41.615 -25.796,41.617 h 7.4388"
         style="fill:#fffc00;paint-order:normal"
         id="path10"
         inkscape:connector-curvature="0" />
    </g>
  </g>
</svg>
