<?xml version="1.0" encoding="UTF-8"?>
<svg width="150mm" height="150mm" version="1.1" viewBox="0 0 150 150" xmlns="http://www.w3.org/2000/svg"><g transform="translate(-1.6394e-5 -147)"><g transform="translate(-512.5 -153)"><path d="m587.5 347.75c-0.32736 0-0.75863 2.023-0.97757 3.043 0 0-8.7023-0.47356-8.7023 0.14107 0 0.61461 8.733 0.36873 8.733 0.36873 0.0812 0.14151 0.22163 0.15914 0.368 0.18528v0.21306c-0.57176 0.16009-1.4739 0.31231-2.5099 0.41186-1.036 0.0995-1.1332 0.93371-1.1332 0.93371-0.70455 4.8918-0.96276 10.026-1.2071 14.632-0.012 0.0118-0.0165 1.6e-4 -0.0369 9e-3l-20.112 2e-3 -27.221 1.9869c-2.1208 0.16639-2.2014 1.5529-2.2014 3.2272v8.0906l29.858 3.5196 19.67 0.0146c1.2567 9.6974 3.6713 28.109 3.6713 28.109l-12.803 2.1075c-0.75926 0.18181-1.8746 0.23703-2.1181 1.0313-0.3756 1.9795-0.35641 4.2182-0.24741 6.0605 0.0369 0.68858 0.16248 1.2114 0.8672 1.354l13.439 2.401c0.39078 0.0865 0.49893-0.13326 0.58873-0.48422l1.3408-4.2669s-0.081 7.3888 0.73272 9.0111c0.81369-1.6224 0.73271-9.0111 0.73271-9.0111l1.3412 4.2669c0.0898 0.35096 0.19795 0.57077 0.58874 0.48422l13.439-2.401c0.70472-0.14253 0.83032-0.6654 0.8672-1.354 0.10899-1.8424 0.12819-4.081-0.24741-6.0605-0.24351-0.79425-1.3589-0.84947-2.1181-1.0313l-12.803-2.1075s2.4149-18.412 3.6716-28.109l19.67-0.0146 29.859-3.5196v-8.0906c5.8e-4 -1.6743-0.081-3.0608-2.2018-3.2272l-27.221-1.9869-20.112-2e-3c-0.0204-9e-3 -0.0249 3e-3 -0.0369-9e-3 -0.2443-4.6057-0.50251-9.7399-1.2071-14.632 0 0-0.0972-0.83417-1.1332-0.93371-1.036-0.0996-1.9381-0.25177-2.5099-0.41186v-0.21307c0.14636-0.0262 0.28682-0.0438 0.368-0.18528 0 0 8.733 0.24589 8.733-0.36873s-8.7023-0.14106-8.7023-0.14106c-0.21894-1.0201-0.65058-3.0431-0.97793-3.0431zm0 9.0766c0.34605 0 0.71407-1.3e-4 0.71408 0.5394v2.36c0 0.54212-0.36803 0.54196-0.71408 0.54196-0.34606 0-0.7192 1.6e-4 -0.7192-0.54196v-2.36c-1e-5 -0.53953 0.37314-0.5394 0.7192-0.5394zm-12.73 16.475c0.34605 0 0.71407-1.3e-4 0.71407 0.5394v2.36c0 0.54211-0.36802 0.54196-0.71407 0.54196-0.34606 0-0.7192 1.5e-4 -0.7192-0.54196v-2.36c0-0.53953 0.37314-0.5394 0.7192-0.5394zm25.474 0c0.34606 0 0.71408-1.3e-4 0.71408 0.5394v2.36c0 0.54211-0.36802 0.54196-0.71408 0.54196-0.34605 0-0.71919 1.5e-4 -0.71919-0.54196v-2.36c-1e-5 -0.53953 0.37314-0.5394 0.71919-0.5394z" fill="#3296ff"/><circle cx="587.5" cy="375" r="74.595" fill="none" stroke="#3296ff" stroke-linecap="square" stroke-linejoin="round" stroke-width=".811" style="paint-order:normal"/></g></g></svg>
