<?xml version="1.0" encoding="UTF-8"?>
<svg width="280mm" height="282.66mm" version="1.1" viewBox="0 0 280 282.66" xmlns="http://www.w3.org/2000/svg"><g transform="translate(35 -7.171)"><g transform="translate(-7.6294e-6 7.3444)"><g transform="matrix(4.5516 0 0 4.5516 -372.53 -527.39)" fill="#3296ff"><path transform="matrix(.26458 0 0 .26458 -7.9725e-5 4.7925e-5)" d="m396.53 449.99c-6.703 0-12.091 16.285-12.119 29.002l-0.17578 54.354-2.8828 7.209-14.512-0.18945c0.6477-4.764 1.2976-11.043-1.4473-15.457l-0.0469-1.3477 14.395 0.83985 0.16797-1.9668-14.578 0.97461c0-1.4239-1.0254-4.1602-2.3457-4.1602-1.4366 0-2.2472 2.4804-2.4375 4.1211l-14.088-1.1582-4e-3 2.4609 14.047-0.9668-0.1914 1.3164c-2.3109 4.8272-1.8613 10.199-0.92774 15.412-46.681 3.307-70.422 5.1355-71.252 5.2051-0.82972 0.0695-1.8463 0.90433-1.9707 2.293-0.0556 0.59954-0.16605 0.90065-0.33008 0.90039-0.16479-1e-3 -0.35633 0.0276-0.57422 0.082-0.21808 0.0533-0.43767 0.32575-0.6582 0.81641-0.67616 2.9741-0.27076 5.9302-0.0977 8.7734 0.0552 0.10885 12.16 0.73137 36.314 1.8672 24.156 1.1349 36.316 1.7029 36.48 1.7031 0.16403 3.7e-4 6.0384 0.17301 24.84 0.20703l2.123 5.0859c-0.0302 21.998 0.0965 58.62 7.0059 86.129-15.285 2.3628-23.055 3.6526-23.314 3.8594-2.0877 2.7596-2.3172 6.879-1.8203 9.998 0.0556 1e-3 4.4001 0.33632 13.033 1.0059l13.115 0.92578c0.10923-0.0544 1.4785-2.0469 1.4785-2.0469 0.21947 1.7517 0.2277 5.2639 2.7734 5.2676h2e-3c2.5457-4e-3 2.552-3.5159 2.7715-5.2676 0 0 1.3693 1.9924 1.4785 2.0469l13.115-0.92578c8.6331-0.66954 12.978-1.0047 13.033-1.0059 0.49693-3.119 0.26734-7.2384-1.8203-9.998-0.25928-0.20674-8.0293-1.4966-23.314-3.8594 6.9093-27.509 7.0361-64.131 7.0059-86.129l2.123-5.0859c18.801-0.034 24.678-0.20666 24.842-0.20703 0.16404-2.3e-4 12.323-0.56825 36.479-1.7031 24.155-1.1358 36.259-1.7583 36.314-1.8672 0.17311-2.8432 0.5785-5.7993-0.0976-8.7734-0.22035-0.49066-0.44013-0.76312-0.65821-0.81641-0.21807-0.0544-0.40943-0.0832-0.57421-0.082-0.16404 2.6e-4 -0.27257-0.30085-0.32813-0.90039-0.12435-1.3886-1.141-2.2234-1.9707-2.293-0.82972-0.0695-24.573-1.8981-71.254-5.2051 0.93358-5.2134 1.3832-10.585-0.92773-15.412l-0.19141-1.3164 14.047 0.9668-4e-3 -2.4609-14.088 1.1582c-0.19049-1.6407-1.0009-4.1211-2.4375-4.1211-1.3203 0-2.3457 2.7363-2.3457 4.1602l-14.576-0.97461 0.16602 1.9668 14.395-0.83985-0.0469 1.3477c-2.7449 4.4137-2.095 10.693-1.4473 15.457l-14.512 0.18945-2.8809-7.209-0.17578-54.354c0-12.782-5.4181-29.002-12.121-29.002zm-2.207 19.031h1.6133v4.8184h-1.6133zm2.8008 0h1.6133v4.8184h-1.6133zm-20.578 81.467h2.7774v7.1152h-2.7774zm3.8789 0h2.7773v7.1152h-2.7773zm29.434 0h2.7774v7.1152h-2.7774zm3.8789 0h2.7773v7.1152h-2.7773z" fill="#3296ff"/></g><circle cx="105" cy="139.83" r="139.18" fill="none" stroke="#3296ff" stroke-linecap="square" stroke-linejoin="round" stroke-width="1.6438" style="paint-order:normal"/></g></g></svg>
