<?xml version="1.0" encoding="UTF-8"?>
<svg width="280mm" height="311.54mm" version="1.1" viewBox="0 0 280 311.54" xmlns="http://www.w3.org/2000/svg"><g transform="translate(-6.4969e-6 14.543)"><circle cx="140" cy="141.28" r="139.36" fill="none" stroke="#3296ff" stroke-linecap="square" stroke-linejoin="round" stroke-miterlimit="4.3333" stroke-width="1.2759" style="paint-order:normal"/><path d="m152.63 24.911c-0.0267-25.744-10.66-39.454-12.634-39.454h1e-5c-1.9741 0-12.608 13.71-12.634 39.454l0.0182 79.957-1.6403 1.3481s-84.993 49.186-89.398 51.752-4.5756 5.1873-4.5756 5.1873-7.5179 14.841-7.7484 15.302c-0.23052 0.4615-0.27144 1.1507-0.27144 1.1507l0.1078 2.3443s6.6825-7.4591 6.8393-7.6432c0.1568-0.18415 0.32861-0.34095 0.7442-0.33769 0.41558 3e-3 1.0215 0.0362 1.4196-0.32729 0.93562-1.1932 2.1371-2.6676 3.9093-3.1924 1.7722-0.52482 39.634-11.689 59.608-17.581l31.015-1.8624v47.86l-0.95849 1.5429h-1.3832c-0.24979-1.7755-0.85068-1.9326-0.85068-1.9326l-11.633 0.12468s-1.2585 0.79803-1.2585 6.6315c0 10.609 1.3118 13.973 1.3118 13.973s0.30131 0.16754 1.2416 0.16754l2.5625 10.064s0.46106 0.0701 0.9494 0.0701l1.7637 5.2665 0.71822-0.0351 1.3923-5.3548c0.55067 0 0.99225-0.16884 0.99225-0.16884l0.0714-0.44288 9.2212 6.0198 5.3548 27.175s-33.731 22.555-34.623 23.158c-0.89108 0.60283-1.4159 2.6639-1.565 4.3768l-0.65199 7.4952 38.872-12.307 1.0494 5.3873 1.1104-5.3873 38.871 12.307-0.65198-7.4952c-0.14909-1.7129-0.67393-3.774-1.565-4.3768-0.8911-0.60285-34.623-23.158-34.623-23.158l5.3561-27.175 9.2199-6.0198 0.0714 0.44288s0.4429 0.16884 0.99356 0.16884l1.391 5.3548 0.71822 0.0351 1.765-5.2665c0.48833 0 0.9481-0.0701 0.9481-0.0701l2.5625-10.064c0.9403 0 1.2416-0.16754 1.2416-0.16754s1.3118-3.3645 1.3118-13.973c0-5.8335-1.2585-6.6315-1.2585-6.6315l-11.633-0.12468s-0.6009 0.15707-0.8507 1.9326h-1.3832l-0.95719-1.5429v-47.86l31.013 1.8624c19.974 5.8921 57.836 17.057 59.608 17.581 1.7722 0.5248 2.9749 1.9992 3.9106 3.1924 0.39808 0.36352 1.0027 0.33031 1.4182 0.32729 0.4156-3e-3 0.58741 0.15355 0.74421 0.33769 0.1568 0.18415 6.8393 7.6432 6.8393 7.6432l0.10781-2.3443s-0.0397-0.68921-0.27015-1.1507c-0.23051-0.4615-7.7497-15.302-7.7497-15.302s-0.16886-2.6209-4.5743-5.1873c-4.4054-2.5664-89.399-51.752-89.399-51.752l-1.639-1.3481 0.0169-79.957m-34.454 111.65c0.78911 0 1.6055 0.23981 1.6053 1.2949v6.738c2.3e-4 0.93982-0.81617 1.2949-1.6053 1.2949-0.78909 0-1.6053-0.35505-1.6053-1.2949v-6.738c0-1.0551 0.81618-1.2949 1.6053-1.2949zm5.0002 0c0.78909 0 1.6055 0.23981 1.6053 1.2949v6.738c2.4e-4 0.93982-0.81619 1.2949-1.6053 1.2949s-1.6053-0.35505-1.6053-1.2949v-6.738c0-1.0551 0.81618-1.2949 1.6053-1.2949zm33.577 0c0.78909 0 1.6053 0.23981 1.6053 1.2949v6.738c0 0.93982-0.81618 1.2949-1.6053 1.2949-0.7891 0-1.6055-0.35505-1.6053-1.2949v-6.738c-2.4e-4 -1.055 0.81618-1.2949 1.6053-1.2949zm5.0002 0c0.78909 1e-5 1.6053 0.2398 1.6053 1.2949v6.738c0 0.93982-0.81618 1.2949-1.6053 1.2949s-1.6055-0.35505-1.6053-1.2949v-6.738c-2.4e-4 -1.0551 0.81619-1.2949 1.6053-1.2949z" fill="#3296ff"/></g></svg>
