<?xml version="1.0" encoding="UTF-8"?>
<svg width="5203mm" height="5463.5mm" version="1.1" viewBox="0 0 5203 5463.5" xmlns="http://www.w3.org/2000/svg"><g transform="translate(2496.5 2583.2)"><path d="m103.62-2580.1c-130.08 0-255.75 434.93-255.75 588.23l-0.125 1240.4s-55.621 87.016-114.96 127.88c-59.342 40.86-294.12 203.78-294.12 203.78l12.788-24.751s2e-4 -204.6 0-255.75c-1e-4 -51.151-12.788-63.938-25.575-63.938-12.787 1e-4 -204.6 0-204.6 0-25.575 0-38.363 12.788-38.363 63.938 0 0-0.399 257.75 0 281.33 0.399 23.577 12.788 51.151 12.788 51.151h25.575l-0.62501 98.405s-1405.1 961.43-1444.4 988.54c-39.261 27.115-51.15 42.459-51.15 63.938v217.39l575.44-242.96 869.56-306.9 179.03-51.151 498.74-62.464s-0.736 1167.2-0.02 1290.1c0.706 122.92 63.489 432.48 63.489 432.48l-702.87 539.38-38.363 51.15v166.24l869.78-212.97 12.563 46.73 25.575 89.513 12.788 102.3 12.788 38.363 12.788-38.363 12.788-102.3 25.575-89.513 12.563-46.73 869.78 212.97v-166.24l-38.363-51.15-702.87-539.38s62.783-309.56 63.488-432.48c0.711-122.92-0.05-1290.1-0.05-1290.1l498.77 62.464 179.03 51.151 869.56 306.9 575.44 242.96v-217.39c0-21.479-11.889-36.823-51.151-63.938-39.261-27.115-1444.4-988.54-1444.4-988.54l-0.60001-98.405h25.575s12.389-27.573 12.788-51.151c0.399-23.577 0-281.33 0-281.33 0-51.15-12.788-63.938-38.363-63.938 0 0-191.81 1e-4 -204.6 0-12.788-1e-4 -25.575 12.788-25.575 63.938-2e-4 51.151 0 255.75 0 255.75l12.788 24.751s-234.77-162.92-294.12-203.78c-59.342-40.86-114.99-127.88-114.99-127.88l-0.104-1240.4c-1e-4 -153.3-125.68-588.23-255.75-588.23zm-38.363 409.2c6.347 2e-4 12.787 5.5342 12.787 11.064v67.809c0 5.4289-6.4405 10.865-12.787 10.864-6.3906 2e-4 -12.788-5.4355-12.788-10.864v-67.809c1e-4 -5.5302 6.3971-11.013 12.788-11.064zm76.726 0c6.3906 0.05 12.788 5.5342 12.788 11.064v67.809c-1e-4 5.4289-6.397 10.865-12.788 10.864-6.347 2e-4 -12.788-5.4355-12.788-10.864v-67.809c0-5.5302 6.4406-11.064 12.788-11.064zm-575.44 2186.7h25.575c6.347 2.01e-4 12.788 6.393 12.788 12.788v76.726c0 6.3929-6.4406 12.788-12.788 12.788h-25.575c-6.3906 1e-4 -12.787-6.3947-12.788-12.788v-76.726c1e-4 -6.3947 6.397-12.736 12.788-12.788zm115.09 0h25.575c6.347 2.01e-4 12.788 6.393 12.788 12.788v76.726c0 6.3929-6.4406 12.788-12.788 12.788h-25.575c-6.3906 1e-4 -12.787-6.3947-12.788-12.788v-76.726c2e-4 -6.3947 6.3971-12.736 12.788-12.788zm818.41 0h25.575c6.3907 0.05 12.788 6.393 12.788 12.788v76.726c-2e-4 6.3929-6.397 12.788-12.788 12.788h-25.575c-6.347 1e-4 -12.788-6.3947-12.788-12.788v-76.726c0-6.3947 6.4406-12.787 12.788-12.788zm115.09 0h25.575c6.3906 0.05 12.788 6.393 12.788 12.788v76.726c-1e-4 6.3929-6.3971 12.788-12.788 12.788h-25.575c-6.347 1e-4 -12.788-6.3947-12.788-12.788v-76.726c0-6.3947 6.4406-12.787 12.788-12.788zm-1048.6 140.66h25.575c6.347 1e-4 12.788 6.3929 12.788 12.787v76.726c0 6.3929-6.4406 12.788-12.788 12.788h-25.575c-6.3906 1e-4 -12.787-6.3947-12.788-12.788v-76.726c1e-4 -6.3946 6.397-12.736 12.788-12.787zm115.09 0h25.575c6.347 1e-4 12.788 6.3929 12.788 12.787v76.726c0 6.3929-6.4406 12.788-12.788 12.788h-25.575c-6.3906 1e-4 -12.787-6.3947-12.788-12.788v-76.726c2e-4 -6.3946 6.3971-12.736 12.788-12.787zm818.41 0h25.575c6.3907 0.05 12.788 6.3929 12.788 12.787v76.726c-2e-4 6.3929-6.397 12.788-12.788 12.788h-25.575c-6.347 1e-4 -12.788-6.3947-12.788-12.788v-76.726c0-6.3946 6.4406-12.787 12.788-12.787zm115.09 0h25.575c6.3906 0.05 12.788 6.3929 12.788 12.787v76.726c-1e-4 6.3929-6.3971 12.788-12.788 12.788h-25.575c-6.347 1e-4 -12.788-6.3947-12.788-12.788v-76.726c0-6.3946 6.4406-12.787 12.788-12.787z" fill="#3296ff" fill-rule="evenodd"/><circle cx="105" cy="135.8" r="2582.6" fill="none" stroke="#3296ff" stroke-linecap="square" stroke-linejoin="round" stroke-width="37.746" style="paint-order:normal"/></g></svg>
