<?xml version="1.0" encoding="UTF-8"?>
<!-- Created with Inkscape (http://www.inkscape.org/) -->
<svg width="211.67mm" height="211.67mm" version="1.1" viewBox="0 0 211.67 211.67" xmlns="http://www.w3.org/2000/svg" xmlns:cc="http://creativecommons.org/ns#" xmlns:dc="http://purl.org/dc/elements/1.1/" xmlns:rdf="http://www.w3.org/1999/02/22-rdf-syntax-ns#">
<metadata>
<rdf:RDF>
<cc:Work rdf:about="">
<dc:format>image/svg+xml</dc:format>
<dc:type rdf:resource="http://purl.org/dc/dcmitype/StillImage"/>
<dc:title/>
</cc:Work>
</rdf:RDF>
</metadata>
<g transform="translate(953.33 -995.17)">
<path d="m-742.19 1101c0 27.929-11.095 54.714-30.844 74.463-19.749 19.749-46.534 30.844-74.463 30.844-27.929 0-54.714-11.095-74.463-30.844-19.749-19.749-30.844-46.534-30.844-74.463 0-27.929 11.095-54.714 30.844-74.463 19.749-19.749 46.534-30.844 74.463-30.844 27.929 0 54.714 11.095 74.463 30.844 19.749 19.749 30.844 46.534 30.844 74.463z" fill="none" stroke="#3296ff" stroke-linejoin="round" stroke-width="1.0531"/>
<path d="m-847.5 1004.7c-7.4097 0-9.4794 27.242-9.4556 35.842v13.103l-1.2407 2.0809-2.6718 3.1116-5.7373 4.7856-15.217 12.445c0.26327-2.4217 0.81772-10.57-0.18346-11.848l-8.6782 0.072c-0.70678 0.8906-1.6381 10.501 0.13788 15.728h1.1029l0.38829 1.823-21.816 16.071c0.5494-2.3946 1.2496-11.314 0.25043-13.182l-8.8583 0.014c-1.0492 4.8589-1.1533 10.88-0.0459 15.696l1.2043 0.04 0.50012 2.5271s-28.608 21.118-31.045 22.91c-2.4373 1.7913-3.8489 5.5589-3.8729 8.2254-0.0241 2.6665-0.0401 5.2116-0.0401 5.2116l35.659-15.492 0.65645 4.4375 1.1948-5.2253 9.3938-3.722 0.4792 5.7045 1.5361-6.4857 9.1575-3.7024 0.83374 5.6914 1.1619-6.4791 8.8095-3.6302 0.53827 2.4748 1.0438-3.1115 9.1247-2.9869 0.64327 2.4748 0.93875-2.9147 12.853-3.4791 0.32163 5.0153 1.4704 10.352 0.033 19.858c0.17362 4.5575 0.64186 9.1069 1.287 13.621l1.477 6.7877c0.23946 1.6304-0.74861 3.3195-1.8528 4.424 0 0-27.318 20.921-28.298 21.678-0.98046 0.7565-1.2339 2.0863-1.2339 2.0863l-2.2479 10.338 25.84-9.5902 11.73-4.0193 2.1403 6.7961 0.58694 6.9848 0.58694-6.9848 2.1403-6.7961 11.73 4.0193 25.84 9.5902-2.2479-10.338s-0.25346-1.3298-1.2339-2.0863c-0.98047-0.7566-28.298-21.678-28.298-21.678-1.1042-1.1045-2.0923-2.7936-1.8528-4.4239l1.477-6.7877c0.64515-4.5145 1.1134-9.0639 1.287-13.621l0.033-19.858 1.4705-10.352 0.32163-5.0153 12.853 3.4791 0.93876 2.9147 0.64326-2.4748 9.1247 2.9869 1.0438 3.1115 0.53826-2.4748 8.8095 3.6302 1.1619 6.4791 0.83375-5.6914 9.1575 3.7024 1.5361 6.4857 0.4792-5.7045 9.3938 3.722 1.1948 5.2253 0.65644-4.4375 35.659 15.492s-0.016-2.5452-0.0401-5.2117-1.4357-6.4341-3.8729-8.2254c-2.4373-1.7912-31.045-22.91-31.045-22.91l0.50013-2.5271 1.2043-0.04c1.1074-4.816 1.0033-10.837-0.0459-15.696l-8.8583-0.014c-0.99921 1.8687-0.29898 10.788 0.25042 13.182l-21.816-16.071 0.3883-1.8229h1.1029c1.776-5.2277 0.84466-14.838 0.13787-15.728l-8.6782-0.072c-1.0012 1.2776-0.44672 9.4259-0.18345 11.848l-15.217-12.445-5.7373-4.7856-2.6718-3.1116-1.2407-2.0809v-13.103c0.0237-8.6006-2.046-35.842-9.4556-35.842zm-2.0804 12.256h1.3916v3.5317h-1.3916zm2.8227 0h1.4048v3.5317h-1.4048zm-19.766 73.142h1.3982v3.5317h-1.3982zm3.5777 0h1.3917v3.5317h-1.3917zm29.501 0h1.3916v3.5317h-1.3916zm3.5645 0h1.4048v3.5317h-1.4048zm-36.643 4.2932h1.3982v3.5251h-1.3982zm3.5777 0h1.3917v3.5251h-1.3917zm29.501 0h1.3916v3.5251h-1.3916zm3.5645 0h1.4048v3.5251h-1.4048zm-27.426 2.0481h1.3983v3.5186h-1.3983zm14.015 0h1.4048v3.5186h-1.4048zm-9.919 0.01h1.3983v3.5251h-1.3983zm14.015 0h1.4048v3.5251h-1.4048zm-18.112 4.4901h1.3983v3.5251h-1.3983zm4.0962 0h1.3983v3.5251h-1.3983zm9.919 0h1.4048v3.5251h-1.4048zm4.0963 0h1.4048v3.5251h-1.4048zm-18.112 4.5033h1.3983v3.5316h-1.3983zm4.0962 0h1.3983v3.5316h-1.3983zm9.919 0h1.4048v3.5316h-1.4048zm4.0963 0h1.4048v3.5316h-1.4048z" fill="#3296ff"/>
</g>
</svg>
